<svg xmlns="http://www.w3.org/2000/svg" viewBox="-14797.583 -22076.111 53.086 70.775"><defs><style>.a{opacity:0.3;}.b{fill:#b5b5b5;}.c{fill:#282828;}.d{fill:none;stroke:#282828;stroke-miterlimit:10;stroke-width:2px;}</style></defs><g class="a" transform="translate(-14797.6 -22076.162)"><ellipse class="b" cx="18.049" cy="3.391" rx="18.049" ry="3.391" transform="translate(8.061 64.043)"/><g transform="translate(0.6 0.4)"><g transform="translate(1.797 2.148)"><path class="c" d="M49.668,71.1a12.163,12.163,0,0,0,10.4,0s2.374-33.084,2.675-40.77c.264-7.687,1.13-24.229-8.29-24.229C45,6.1,44.091,18.535,46.465,34.172S49.668,71.1,49.668,71.1Z" transform="translate(-30.288 -6.1)"/><g transform="translate(21.961 21.891)"><path class="c" d="M68.3,91.327a2.484,2.484,0,0,0,.339.075c.226.038.6.113,1.093.226a33.937,33.937,0,0,0,3.843.452,15.454,15.454,0,0,0,2.3-.075,3.363,3.363,0,0,0,1.583-.49c.038-.038.075-.075.038-.075H77.46l-.113.113h0l.075-.075.038-.038h0c-.038.038-.075.038-.075.075-.038.038-.038.075-.075.075h0v-.038l.038-.075a2.861,2.861,0,0,1,.151-.414,19.611,19.611,0,0,0,.565-2.826c.151-1.055.264-2.185.377-3.316.075-1.13.151-2.261.188-3.354.113-2.185.113-4.258.113-6.067,0-1.771-.038-3.278-.038-4.3-.038-1.017-.038-1.583-.038-1.583v-.075a5.2,5.2,0,0,1,10.4-.3v.377s-.038.641-.075,1.771c-.075,1.093-.151,2.675-.3,4.559s-.339,4.07-.6,6.443c-.151,1.168-.3,2.412-.49,3.655s-.414,2.562-.716,3.881a28.611,28.611,0,0,1-1.243,4.22,11.309,11.309,0,0,1-.565,1.206l-.188.339-.226.339c-.075.113-.151.264-.226.377l-.151.188-.226.264-.226.264c-.038.075-.038.038-.075.075l-.038.038-.075.075-.151.151-.038.038-.075.075a4.491,4.491,0,0,1-.678.565,11.8,11.8,0,0,1-1.394.867,10.285,10.285,0,0,1-2.6.829,16.357,16.357,0,0,1-2.185.264,21.255,21.255,0,0,1-3.58-.151,35.859,35.859,0,0,1-4.861-.942c-.565-.151-1.017-.3-1.319-.377a4.927,4.927,0,0,0-.528-.151,3.687,3.687,0,0,1,1.884-7.122Z" transform="translate(-63.651 -64.195)"/></g><g transform="translate(0 12.381)"><path class="c" d="M28.253,74.054a4.376,4.376,0,0,0-.49.038c-.3.038-.754.038-1.319.075-1.13.038-2.751.113-4.71.038-.98-.038-2.072-.113-3.278-.264-.6-.075-1.206-.188-1.884-.3a12.254,12.254,0,0,1-2.072-.565,13.984,13.984,0,0,1-2.374-1.055c-.226-.151-.452-.264-.641-.414l-.339-.264-.038-.038c-.075-.075-.151-.113-.226-.188-.151-.151-.264-.3-.414-.452-.075-.075-.075-.113-.113-.151l-.113-.113a10.081,10.081,0,0,1-.942-1.62,21.9,21.9,0,0,1-.829-2.3c-.188-.716-.377-1.357-.528-2.035-.3-1.319-.528-2.562-.716-3.806S6.85,58.19,6.7,57.022c-.3-2.336-.565-4.484-.754-6.33s-.339-3.391-.414-4.446c-.075-1.093-.151-1.733-.151-1.733a5.206,5.206,0,0,1,4.785-5.539,5.262,5.262,0,0,1,5.652,4.785c0,.113.075.264.075.377v.075s-.038.565-.038,1.62c0,1.017,0,2.525.038,4.3s.113,3.843.226,6.029c.075,1.093.151,2.223.226,3.354.113,1.13.226,2.261.377,3.316.075.528.151,1.055.264,1.507a8.576,8.576,0,0,0,.264,1.13c.038.075.075.151-.113-.075l-.075-.113a.88.88,0,0,0-.264-.264c-.038-.038-.113-.075-.151-.113l.038.038.038.038.038.038h0c.226.188-.264-.226-.226-.188.038,0,.038.038.075.075a4.17,4.17,0,0,0,.754.414c.339.151.716.264,1.13.414a12.75,12.75,0,0,0,1.281.3c.867.188,1.733.3,2.562.414a35.212,35.212,0,0,0,4.032.226c.49,0,.867-.038,1.13-.038h.49a3.731,3.731,0,0,1,3.693,3.73A3.789,3.789,0,0,1,28.253,74.054Z" transform="translate(-5.369 -38.957)"/></g></g><path class="d" d="M55.517,5.412A10.973,10.973,0,0,0,54.5.4" transform="translate(-34.19 -0.4)"/><path class="d" d="M51.778,9.961C50.912,9.019,49.442,8.68,48.5,7.7" transform="translate(-30.451 -4.949)"/><path class="d" d="M79.9,6.658A9.109,9.109,0,0,0,80.654,2.4" transform="translate(-50.019 -1.646)"/><path class="d" d="M80.6,11.643A10.516,10.516,0,0,1,83.351,10.4" transform="translate(-50.456 -6.632)"/><path class="d" d="M89.2,30.5c1.13-1.093,1.809-2.525,3.014-3.5" transform="translate(-55.815 -16.977)"/><path class="d" d="M89.9,35a4.943,4.943,0,0,1,2.751,1.771" transform="translate(-56.251 -21.963)"/><path class="d" d="M89.2,65.207c1.168.264,2.223-1.13,3.5-1.507" transform="translate(-55.815 -39.848)"/><path class="d" d="M90.6,67.7a17.782,17.782,0,0,0,2.525,2.261" transform="translate(-56.687 -42.341)"/><path class="d" d="M116.159,59.632c.075-1.168-.3-2.638-.264-4.032" transform="translate(-72.45 -34.8)"/><path class="d" d="M117.9,62.451a30.387,30.387,0,0,1,3.5-2.751" transform="translate(-73.701 -37.355)"/><path class="d" d="M128.6,87.751c1.357-.791,2.412-1.959,3.768-2.751" transform="translate(-80.369 -53.122)"/><path class="d" d="M127.9,92.3a3.679,3.679,0,0,1,2.751,2.261" transform="translate(-79.933 -57.672)"/><path class="d" d="M122.6,120.243c1.507.038,2.638-.716,4.032-1.243" transform="translate(-76.63 -74.311)"/><path class="d" d="M123.9,122.3c.678,1.243,1.507,2.562,2.261,3.768" transform="translate(-77.44 -76.367)"/><path class="d" d="M13.079,34.822c.339-.038.49-.226.49-.49A5.623,5.623,0,0,1,11.8,30.3" transform="translate(-7.578 -19.034)"/><path class="d" d="M17.2,36.222c.565-1.47,1.658-2.826,2-4.522" transform="translate(-10.945 -19.906)"/><path class="d" d="M3.351,60.4A10.594,10.594,0,0,0,.6,58.4" transform="translate(-0.6 -36.545)"/><path class="d" d="M3.725,65.7a10.729,10.729,0,0,1-2.525,2" transform="translate(-0.974 -41.095)"/><path class="d" d="M4.858,92.4A11.644,11.644,0,0,1,.6,90.4" transform="translate(-0.6 -56.487)"/><path class="d" d="M9.025,95.7c-.867,1.055-1.733,2.261-2.525,3.278" transform="translate(-4.277 -59.79)"/><path class="d" d="M31.9,70.825c.678-.867,1.47-1.7,2.261-2.525" transform="translate(-20.106 -42.715)"/><path class="d" d="M31.2,75.7c1.13.678,2.525,1.168,3.278,2.261" transform="translate(-19.67 -47.327)"/><path class="d" d="M43.614,29.578A30.76,30.76,0,0,0,40.6,26.3" transform="translate(-25.528 -16.541)"/><path class="d" d="M41.932,38.969c-1.47-.151-2.638.641-4.032.754" transform="translate(-23.845 -24.424)"/><path class="d" d="M86.6,103.525c1.319-.754,2.487-1.62,3.768-2.525" transform="translate(-54.195 -63.093)"/><path class="d" d="M86.6,111.7a7.647,7.647,0,0,1,2.261,2.525" transform="translate(-54.195 -69.761)"/></g></g></svg>